<svg id="Layer_1" width="22" height="32" preserveAspectRatio="xMidYMid meet" data-name="Layer 1" xmlns="http://www.w3.org/2000/svg" viewBox="0 0 81.67 71.67"><defs><style>.cls-1{fill:none;stroke:#FAFAF8;stroke-miterlimit:10;stroke-width:1.75px;}</style></defs><title>icon_Artboard 7</title><path class="cls-1" d="M68.18,39.49a4.45,4.45,0,0,0,0-8.9,4.35,4.35,0,0,0-1.87.43,23.37,23.37,0,0,0-1.16-4.66A4.44,4.44,0,1,0,61,19.14a24.31,24.31,0,0,0-3.34-3.23,4.38,4.38,0,0,0,1.57-3.36,4.44,4.44,0,0,0-8.83-.63,24.79,24.79,0,0,0-4.49-1.12,4.5,4.5,0,0,0,.44-1.91,4.45,4.45,0,0,0-8.9,0,4.35,4.35,0,0,0,.46,1.93,24.42,24.42,0,0,0-4.94,1.31A4.45,4.45,0,1,0,26.21,16a23.83,23.83,0,0,0-3.77,3.81,4.44,4.44,0,1,0-4,6.28,3.91,3.91,0,0,0,.48,0,22.72,22.72,0,0,0-1.29,5.07,4.52,4.52,0,0,0-2.3-.65,4.45,4.45,0,1,0,2.49,8.13,23.13,23.13,0,0,0,1.61,5.08,6,6,0,0,0-.61-.06A4.45,4.45,0,1,0,23,49.33a24.43,24.43,0,0,0,4.47,4,4.44,4.44,0,1,0,5.57,4.29,4.58,4.58,0,0,0-.25-1.44A25.08,25.08,0,0,0,39,57.73a4.4,4.4,0,0,0-1.75,3.51,4.45,4.45,0,1,0,7.24-3.44,25.3,25.3,0,0,0,6.37-1.49,4.4,4.4,0,0,0-.29,1.55,4.45,4.45,0,1,0,5.59-4.29,24.1,24.1,0,0,0,4.52-4,4.44,4.44,0,1,0,4.17-6,2.77,2.77,0,0,0-.3,0,23.3,23.3,0,0,0,1.56-4.74A4.46,4.46,0,0,0,68.18,39.49Z"/><ellipse class="cls-1" cx="41.63" cy="34.44" rx="18.38" ry="18.01"/><ellipse class="cls-1" cx="42.04" cy="35.07" rx="11.45" ry="11.22"/></svg>