<svg id="Layer_1" width="26" height="36" preserveAspectRatio="xMidYMid meet" data-name="Layer 1" xmlns="http://www.w3.org/2000/svg" viewBox="0 0 96.33 63.83"><defs><style>.cls-1{fill:#FAFAF8;}</style></defs><title>icon_Artboard 5</title><path class="cls-1" d="M17.08,57.36c1.33-2.86,4.89-5.65,7.13-8.08,1.13,1.21,1.66,2.27,2.5,2.62q9,3.8,18.09,7.28A4,4,0,0,0,47.66,59c2.37-1.14,4.66-2.46,6.91-3.82Q69.71,46,84.79,36.78c.86-.52,1.69-1.08,2.74-1.75-6.41-10.62-12.67-21-19-31.45-.71.36-1.14.54-1.53.78-12.37,7.43-24.7,14.93-37.14,22.25a5.66,5.66,0,0,0-3,5c-.31,3.67-.68,7.33-1.15,11a2.85,2.85,0,0,1-1.17,2c-5,2.52-8.33,6.67-11.3,11.23C12.88,56.39,15.58,56.79,17.08,57.36ZM39,38.62c2.41.34,4.24,2,4.08,4.35a7.34,7.34,0,0,1-2.66,4.8c-2.05,1.55-4.27.59-6.2-1.38,2.68-2.36,2.6-3-.4-4.8A4.57,4.57,0,0,1,39,38.62Z"/></svg>