<svg id="Layer_1" width="22" height="32" preserveAspectRatio="xMidYMid meet" data-name="Layer 1" xmlns="http://www.w3.org/2000/svg" viewBox="0 0 66.33 64.83"><defs><style>.cls-1{fill:#FAFAF8;}</style></defs><title>icon_Artboard 3</title><path class="cls-1" d="M11.82,38.27H10.73V53.81H26.27V38.27H11.82ZM25.18,52.72H11.82V39.36H25.18Z"/><rect class="cls-1" x="50.11" y="48.46" width="1.09" height="4.54"/><path class="cls-1" d="M59.76,4.53V4.06H7.58v.3h0L4.15,32.24A2.6,2.6,0,0,0,5.71,35V61H61.49V34A2.56,2.56,0,0,0,62,32.21Zm-6.53.56L55,26.63H50.16L48.55,5.09Zm-17,0H42l1.61,21.54H36.24Zm-11.86,0h5.31V26.63H23.76Zm-10.9,0h4.35l-.62,21.54H11.44L14.07,5.16ZM53.53,59.92H38.72V39.36H53.53Zm6.86,0H54.62V38.27h-17V59.92H6.8V35.21l.93.11A2.62,2.62,0,0,0,10.65,33l.65-5.32h5.88L17,32.86a2.62,2.62,0,0,0,2.54,2.69l1.31,0a2.63,2.63,0,0,0,2.7-2.54l.15-5.33h6v4.8a2.62,2.62,0,0,0,2.62,2.62h1.31a2.62,2.62,0,0,0,2.62-2.62v-4.8h7.43l.37,5a2.63,2.63,0,0,0,2.81,2.42l1.31-.1a2.62,2.62,0,0,0,2.41-2.81l-.33-4.52h4.83l.41,5a2.62,2.62,0,0,0,2.83,2.4l1.3-.1a2.79,2.79,0,0,0,.78-.2Z"/></svg>