<svg id="Layer_1" width="512" height="512" preserveAspectRatio="xMidYMid meet" data-name="Layer 1" xmlns="http://www.w3.org/2000/svg" viewBox="0 0 48 71"><defs><style>.cls-1{fill:#FAFAF8;}</style></defs><title>icon_Artboard 2</title><path class="cls-1" d="M38,19.41A15.29,15.29,0,1,0,15.14,32.69l7.32,22.13L29.67,33A15.27,15.27,0,0,0,38,19.41Zm-15.29,8.3a8.3,8.3,0,1,1,8.3-8.3A8.31,8.31,0,0,1,22.69,27.71Z"/><path class="cls-1" d="M29.23,49.61,28,53.45c5.12.77,8.71,2.54,8.71,4.61,0,2.77-6.46,5-14.42,5s-14.41-2.25-14.41-5c0-2.08,3.64-3.87,8.81-4.63l-1.21-3.68c-7.1,1.3-12.11,4.43-12.11,8.09,0,4.82,8.7,8.73,19.43,8.73S42.2,62.66,42.2,57.84C42.2,54,36.78,50.81,29.23,49.61Z"/></svg>