<svg id="Layer_1" width="512" height="512" preserveAspectRatio="xMidYMid meet" data-name="Layer 1" xmlns="http://www.w3.org/2000/svg" viewBox="0 0 90.67 68"><defs><style>.cls-1{fill:#FAFAF8;}</style></defs><title>icon_Artboard 6</title><path class="cls-1" d="M28.77,21.07a28.58,28.58,0,0,0-7.91.64,4.87,4.87,0,0,0-3.71,3.71c-.07.32-.18.63-.27.95a4,4,0,0,1-4.3,3,4.07,4.07,0,0,1-4.09-3.45,4.81,4.81,0,0,1,.57-3.23,11.36,11.36,0,0,1,6.2-5.44,25.28,25.28,0,0,1,6.34-1.63c1.74-.18,3.5-.28,5.25-.36A107.79,107.79,0,0,1,41,15.53c2.94.23,5.87.44,8.81.69,1.27.11,2.54.27,3.81.47a3.23,3.23,0,0,1,2.86,2.68,2.07,2.07,0,0,1-1.38,2.34,8.06,8.06,0,0,1-3.13.4l-16.65-.94c-.51,0-.66.14-.78.62-1.06,4.3-2.08,8.62-3.26,12.89C29.26,42,27.14,49.23,25,56.49A26.37,26.37,0,0,1,23.67,60a3.63,3.63,0,0,1-2.73,2.28,2.92,2.92,0,0,1-3.5-2.68,14.91,14.91,0,0,1,.74-5.35c1.45-4.72,2.84-9.48,4.53-14.12C25,34,26.79,27.68,28.69,21.4Z"/><path class="cls-1" d="M46.9,6.59c-.09,1.38-.16,2.62-.25,3.86A2,2,0,0,1,45.82,12a1.1,1.1,0,0,1-1.67-.25,2.28,2.28,0,0,1-.43-1.26c0-1.44.18-2.88.28-4.32a1.28,1.28,0,0,1,0-.27,1.62,1.62,0,0,1,1.62-1.21A1.64,1.64,0,0,1,46.9,6.23C46.91,6.4,46.9,6.56,46.9,6.59Z"/><path class="cls-1" d="M41.15,11.66a1.23,1.23,0,0,1-.67,1.14,1.41,1.41,0,0,1-1.65-.42A38.29,38.29,0,0,1,36.41,9a1.27,1.27,0,0,1,.35-1.71,1.31,1.31,0,0,1,1.69.32c.84,1,1.64,2.13,2.43,3.22A2.93,2.93,0,0,1,41.15,11.66Z"/><path class="cls-1" d="M49.63,13.71c-1,0-1.44-.72-1.08-1.4a2.63,2.63,0,0,1,.72-.8c.89-.67,1.8-1.31,2.71-1.95a1.76,1.76,0,0,1,1.48-.4.78.78,0,0,1,.6,1.12,2.78,2.78,0,0,1-.78,1c-.92.72-1.88,1.39-2.84,2.05A4,4,0,0,1,49.63,13.71Z"/><path class="cls-1" d="M79.91,50.87a1.51,1.51,0,0,0-.83-.78A3.09,3.09,0,0,0,77.57,50a11.44,11.44,0,0,0-2.5.75c-1.88.86-3.7,1.83-5.57,2.7a17.61,17.61,0,0,1-2.7,1c-1,.29-1.47,0-1.78-1a6.69,6.69,0,0,1-.32-1.65,31.64,31.64,0,0,1,1-9.39c.27-1.16.5-2.32.66-3.49a3.21,3.21,0,0,0-1.57-3.57,4.52,4.52,0,0,0-3-.3,4.94,4.94,0,0,0-3.12,2.58C58,38.81,57.47,40,56.87,41.23c-.76,1.51-1.54,3-2.32,4.5a4.94,4.94,0,0,1-.5.7l-.26-.09c.17-1.5.35-3,.52-4.49s.42-2.9.47-4.35a2.21,2.21,0,0,0-2-2.49,3.34,3.34,0,0,0-3.33,1.58,11.82,11.82,0,0,0-1.2,3,52.43,52.43,0,0,0-1.1,10.23,1.64,1.64,0,0,1-.66,1.35c-1.54,1.18-3.07,2.37-4.63,3.53a3.35,3.35,0,0,1-1.13.53c-1.3.33-2.37,0-2.41-1.64a3.85,3.85,0,0,1,0-.76c.29-1.59.59-3.18.9-4.76.27-1.32.51-2.66.84-4,.43-1.66,1-3.29,1.41-5a3.8,3.8,0,0,0,0-2.68,2.63,2.63,0,0,0-1.31-1.08,8,8,0,0,1,1.42-1.62c.22.23.32.44.48.51,1.16.49,2.33,1,3.51,1.41a.8.8,0,0,0,.55,0c.46-.22.9-.48,1.34-.74l5.85-3.57.53-.34L50.12,25l-.3.15C47.43,26.55,45,28,42.63,29.42a1.1,1.1,0,0,0-.58,1c-.06.71-.13,1.42-.22,2.13a.56.56,0,0,1-.23.38,5.75,5.75,0,0,0-2.18,2.17.59.59,0,0,1-.42.25A3.43,3.43,0,0,0,36,37a10.2,10.2,0,0,0-1.73,3.93c-.79,3.38-1.57,6.75-2.27,10.15a17.74,17.74,0,0,0-.38,6,3.4,3.4,0,0,0,2.54,3.16,9.31,9.31,0,0,0,7.57-1.13c1.47-.93,2.92-1.89,4.38-2.83.13-.08.27-.15.43-.23.12,2.18.14,2.19.64,3a2.49,2.49,0,0,0,3.72.82,5.48,5.48,0,0,0,1.31-1.23c1.08-1.53,2.15-3.07,3.13-4.67A30.47,30.47,0,0,0,57,50.72c.68-1.49,1.3-3,2-4.51a8.61,8.61,0,0,1,.7-1l.24.07A4,4,0,0,1,60,46a7.28,7.28,0,0,1-.14,1A24.89,24.89,0,0,0,59.64,56a16.11,16.11,0,0,0,1,3.16,1.67,1.67,0,0,0,1.67,1.05A10,10,0,0,0,65,59.75c1.93-.65,3.83-1.41,5.72-2.2q4-1.66,7.93-3.43A2.4,2.4,0,0,0,79.91,50.87ZM44.39,31.75a.82.82,0,0,1,.79.84,1.45,1.45,0,0,1-.51.93c-.4.3-.83.11-1.2-.27.52-.46.5-.59-.08-.93A.87.87,0,0,1,44.39,31.75Z"/></svg>